<svg width="96" height="98" viewBox="0 0 96 98" fill="none" xmlns="http://www.w3.org/2000/svg">
<rect width="96" height="96" transform="translate(0 2)" fill="white"/>
<path d="M25.9595 19.3407V30.6952H11.2422L25.9595 19.3407Z" fill="#4316A3"/>
<path d="M25.9595 19.3407V30.6952H11.2422L25.9595 19.3407Z" fill="white" fill-opacity="0.35"/>
<path d="M69.9082 19.3407V30.6868L84.7045 30.6952L69.9082 19.3407Z" fill="#4316A3"/>
<path d="M69.9082 19.3407V30.6868L84.7045 30.6952L69.9082 19.3407Z" fill="white" fill-opacity="0.35"/>
<path d="M69.9087 19.3407L84.7051 30.6952H11.2422L25.9595 19.3407H69.9087Z" fill="#EE81E3"/>
<path d="M69.9087 19.3407L84.7051 30.6952H11.2422L25.9595 19.3407H69.9087Z" fill="white" fill-opacity="0.5"/>
<path d="M47.23 45.6602C58.7342 45.6602 68.0601 36.3342 68.0601 24.8301C68.0601 13.3259 58.7342 3.99995 47.23 3.99995C35.7259 3.99995 26.3999 13.3259 26.3999 24.8301C26.3999 36.3342 35.7259 45.6602 47.23 45.6602Z" fill="#4316A3"/>
<path d="M47.23 45.6602C58.7342 45.6602 68.0601 36.3342 68.0601 24.8301C68.0601 13.3259 58.7342 3.99995 47.23 3.99995C35.7259 3.99995 26.3999 13.3259 26.3999 24.8301C26.3999 36.3342 35.7259 45.6602 47.23 45.6602Z" fill="white" fill-opacity="0.35"/>
<path d="M46.9479 41.096C56.0871 41.096 63.4959 33.6872 63.4959 24.548C63.4959 15.4088 56.0871 8.00005 46.9479 8.00005C37.8087 8.00005 30.3999 15.4088 30.3999 24.548C30.3999 33.6872 37.8087 41.096 46.9479 41.096Z" fill="#4316A3"/>
<path d="M46.9479 41.096C56.0871 41.096 63.4959 33.6872 63.4959 24.548C63.4959 15.4088 56.0871 8.00005 46.9479 8.00005C37.8087 8.00005 30.3999 15.4088 30.3999 24.548C30.3999 33.6872 37.8087 41.096 46.9479 41.096Z" fill="white" fill-opacity="0.35"/>
<path d="M47.0699 35.308C46.5846 35.308 46.1972 35.2707 45.9079 35.196V32.704C44.9746 32.5734 44.1112 32.3494 43.3179 32.032C42.5246 31.7147 41.8852 31.3927 41.3999 31.066C41.4092 30.6647 41.5306 30.2354 41.7639 29.778C41.9972 29.3207 42.2586 28.9987 42.5479 28.812C43.1826 29.2227 43.9152 29.5867 44.7459 29.904C45.5766 30.2214 46.3979 30.3847 47.2099 30.394C48.0032 30.394 48.6566 30.226 49.1699 29.89C49.6832 29.5447 49.9446 29.0594 49.9539 28.434C49.9632 27.9207 49.8092 27.468 49.4919 27.076C49.1746 26.6747 48.6659 26.3527 47.9659 26.11L45.2499 25.144C44.2326 24.7894 43.4206 24.2807 42.8139 23.618C42.2166 22.946 41.9179 22.1014 41.9179 21.084C41.9179 19.9174 42.3052 18.9187 43.0799 18.088C43.8639 17.2574 44.8999 16.7487 46.1879 16.562V14.112C46.3466 14.0747 46.5286 14.0467 46.7339 14.028C46.9486 14.0094 47.1539 14 47.3499 14C47.8072 14 48.1899 14.0374 48.4979 14.112V16.576C49.2819 16.66 50.0052 16.814 50.6679 17.038C51.3399 17.262 51.9372 17.5094 52.4599 17.78C52.4599 18.1907 52.3619 18.606 52.1659 19.026C51.9792 19.446 51.7366 19.7914 51.4379 20.062C50.7846 19.7074 50.1126 19.4274 49.4219 19.222C48.7406 19.0167 48.0686 18.914 47.4059 18.914C46.6406 18.914 46.0292 19.082 45.5719 19.418C45.1146 19.754 44.8859 20.2067 44.8859 20.776C44.8859 21.3174 45.0632 21.728 45.4179 22.008C45.7726 22.2787 46.2392 22.5167 46.8179 22.722L49.3939 23.66C50.4859 24.052 51.3539 24.6214 51.9979 25.368C52.6419 26.1147 52.9639 27.0807 52.9639 28.266C52.9639 29.4607 52.5392 30.4687 51.6899 31.29C50.8406 32.102 49.6832 32.5874 48.2179 32.746V35.196C47.9379 35.2707 47.5552 35.308 47.0699 35.308Z" fill="white"/>
<path d="M11.4214 44.5586H84.6552V81.1398C84.6552 82.7193 83.4249 83.9996 81.9071 83.9996H14.1695C12.6518 83.9996 11.4214 82.7193 11.4214 81.1398V44.5586Z" fill="#4316A3"/>
<path d="M11.4214 44.5586H84.6552V81.1398C84.6552 82.7193 83.4249 83.9996 81.9071 83.9996H14.1695C12.6518 83.9996 11.4214 82.7193 11.4214 81.1398V44.5586Z" fill="white" fill-opacity="0.35"/>
<path d="M11.3259 30.695L4.17967 47.0553C3.90803 47.6456 3.94639 48.3397 4.28126 48.8937C4.61614 49.4478 5.20072 49.7843 5.82968 49.7852H90.1637C90.8064 49.7852 91.4021 49.4344 91.7334 48.8611C92.0646 48.2878 92.0829 47.5759 91.7816 46.985L84.7831 30.695H11.3259Z" fill="#2A84C6"/>
<path d="M11.3259 30.695L4.17967 47.0553C3.90803 47.6456 3.94639 48.3397 4.28126 48.8937C4.61614 49.4478 5.20072 49.7843 5.82968 49.7852H90.1637C90.8064 49.7852 91.4021 49.4344 91.7334 48.8611C92.0646 48.2878 92.0829 47.5759 91.7816 46.985L84.7831 30.695H11.3259Z" fill="white" fill-opacity="0.85"/>
</svg>

