<svg width="3802" height="2141" viewBox="0 0 3802 2141" fill="none" xmlns="http://www.w3.org/2000/svg">
<g opacity="0.7">
<g style="mix-blend-mode:darken">
<rect x="3802" y="2141" width="3802" height="2141" transform="rotate(-180 3802 2141)" fill="url(#paint0_linear)"/>
</g>
</g>
<g opacity="0.2">
<g style="mix-blend-mode:darken">
<mask id="mask0" mask-type="alpha" maskUnits="userSpaceOnUse" x="0" y="0" width="3802" height="2141">
<rect x="3802" y="2141" width="3802" height="2141" transform="rotate(-180 3802 2141)" fill="white"/>
</mask>
<g mask="url(#mask0)">
<rect x="3802" y="2141" width="3802" height="2141" transform="rotate(-180 3802 2141)" fill="url(#paint1_linear)"/>
<g style="mix-blend-mode:overlay">
<path fill-rule="evenodd" clip-rule="evenodd" d="M-841.51 508.686L-648.03 593.467C-454.551 678.248 -67.5915 847.81 319.368 904.33C706.327 960.851 1093.29 904.33 1480.25 876.07C1867.2 847.81 2254.16 847.81 2641.12 960.851C3028.08 1073.89 3415.04 1299.97 3608.52 1413.02L3802 1526.06V-3.24249e-05H3608.52C3415.04 -3.24249e-05 3028.08 -3.24249e-05 2641.12 -3.24249e-05C2254.16 -3.24249e-05 1867.2 -3.24249e-05 1480.25 -3.24249e-05C1093.29 -3.24249e-05 706.327 -3.24249e-05 319.368 -3.24249e-05C-67.5915 -3.24249e-05 -454.551 -3.24249e-05 -648.03 -3.24249e-05H-841.51V508.686Z" fill="url(#paint2_linear)"/>
</g>
<path fill-rule="evenodd" clip-rule="evenodd" d="M4958.85 1476.71H4700.91C4442.97 1476.71 3927.1 1476.71 3411.22 1285.28C2895.35 1093.86 2379.47 711.008 1863.6 546.929C1347.72 382.851 831.849 437.543 315.974 601.622C-199.901 765.701 -715.776 1039.17 -973.714 1175.9L-1231.65 1312.63V7.43866e-05H-973.714C-715.776 7.43866e-05 -199.901 7.43866e-05 315.974 7.43866e-05C831.849 7.43866e-05 1347.72 7.43866e-05 1863.6 7.43866e-05C2379.47 7.43866e-05 2895.35 7.43866e-05 3411.22 7.43866e-05C3927.1 7.43866e-05 4442.97 7.43866e-05 4700.91 7.43866e-05H4958.85V1476.71Z" fill="#0085FF"/>
</g>
</g>
</g>
<g style="mix-blend-mode:darken">
<mask id="mask1" mask-type="alpha" maskUnits="userSpaceOnUse" x="0" y="0" width="3802" height="2141">
<rect x="3802" y="2141" width="3802" height="2141" transform="rotate(-180 3802 2141)" fill="white"/>
</mask>
<g mask="url(#mask1)">
<rect opacity="0.8" x="3802" y="2141" width="3802" height="2141" transform="rotate(-180 3802 2141)" fill="url(#paint3_linear)"/>
<path fill-rule="evenodd" clip-rule="evenodd" d="M4907.11 1231.07H4649.21C4391.31 1231.07 3875.51 1231.07 3359.7 1071.49C2843.9 911.907 2328.09 592.74 1812.29 455.954C1296.48 319.168 780.677 364.763 264.873 501.549C-250.932 638.335 -766.737 866.312 -1024.64 980.3L-1282.54 1094.29V3.05176e-05H-1024.64C-766.737 3.05176e-05 -250.932 3.05176e-05 264.873 3.05176e-05C780.677 3.05176e-05 1296.48 3.05176e-05 1812.29 3.05176e-05C2328.09 3.05176e-05 2843.9 3.05176e-05 3359.7 3.05176e-05C3875.51 3.05176e-05 4391.31 3.05176e-05 4649.21 3.05176e-05H4907.11V1231.07Z" fill="#F7F7FA"/>
<path fill-rule="evenodd" clip-rule="evenodd" d="M4957.81 1587.91H4699.91C4442 1587.91 3926.2 1587.91 3410.39 1428.32C2894.59 1268.74 2378.78 949.573 1862.98 812.787C1347.18 676.001 831.371 721.596 315.566 858.382C-200.239 995.169 -716.043 1223.15 -973.946 1337.13L-1231.85 1451.12V356.833H-973.946C-716.043 356.833 -200.239 356.833 315.566 356.833C831.371 356.833 1347.18 356.833 1862.98 356.833C2378.78 356.833 2894.59 356.833 3410.39 356.833C3926.2 356.833 4442 356.833 4699.91 356.833H4957.81V1587.91Z" fill="#F7F7FA"/>
<path opacity="0.5" fill-rule="evenodd" clip-rule="evenodd" d="M-6901.27 324.897L-6410.87 446.646C-5920.46 568.396 -4939.65 811.895 -3958.84 893.061C-2978.02 974.227 -1997.21 893.061 -1016.4 852.478C-35.5879 811.895 945.224 811.895 1926.04 974.227C2906.85 1136.56 3887.66 1461.23 4378.07 1623.56L4868.47 1785.89V-405.6H4378.07C3887.66 -405.6 2906.85 -405.6 1926.04 -405.6C945.224 -405.6 -35.5879 -405.6 -1016.4 -405.6C-1997.21 -405.6 -2978.02 -405.6 -3958.84 -405.6C-4939.65 -405.6 -5920.46 -405.6 -6410.87 -405.6H-6901.27V324.897Z" fill="url(#paint4_linear)"/>
<path fill-rule="evenodd" clip-rule="evenodd" d="M4995.83 1248.92H4737.89C4479.95 1248.92 3964.08 1248.92 3448.2 1089.4C2932.33 929.875 2416.45 610.833 1900.58 474.1C1384.7 337.368 868.827 382.945 352.952 519.678C-162.923 656.41 -678.799 884.297 -936.736 998.241L-1194.67 1112.18V18.3259H-936.736C-678.799 18.3259 -162.923 18.3259 352.952 18.3259C868.827 18.3259 1384.7 18.3259 1900.58 18.3259C2416.45 18.3259 2932.33 18.3259 3448.2 18.3259C3964.08 18.3259 4479.95 18.3259 4737.89 18.3259H4995.83V1248.92Z" fill="#F7F7FA"/>
</g>
</g>
<defs>
<linearGradient id="paint0_linear" x1="2573.92" y1="2832.56" x2="3548.82" y2="5512.43" gradientUnits="userSpaceOnUse">
<stop stop-color="#3E7BFA"/>
<stop offset="1" stop-color="#6600CC"/>
</linearGradient>
<linearGradient id="paint1_linear" x1="2573.92" y1="2832.56" x2="3548.82" y2="5512.43" gradientUnits="userSpaceOnUse">
<stop stop-color="#3E7BFA"/>
<stop offset="1" stop-color="#6600CC"/>
</linearGradient>
<linearGradient id="paint2_linear" x1="-2341.4" y1="1033.13" x2="-1902" y2="-1036.52" gradientUnits="userSpaceOnUse">
<stop stop-color="#3E7BFA"/>
<stop offset="1" stop-color="#6600CC"/>
</linearGradient>
<linearGradient id="paint3_linear" x1="2573.92" y1="2832.56" x2="3548.82" y2="5512.43" gradientUnits="userSpaceOnUse">
<stop stop-color="#3E7BFA"/>
<stop offset="1" stop-color="#6600CC"/>
</linearGradient>
<linearGradient id="paint4_linear" x1="-10703" y1="1078.02" x2="-10334.7" y2="-1983.77" gradientUnits="userSpaceOnUse">
<stop stop-color="#5B8DEF"/>
<stop offset="1" stop-color="#0063F7"/>
</linearGradient>
</defs>
</svg>

