<svg width="120" height="113" viewBox="0 0 120 113" fill="none" xmlns="http://www.w3.org/2000/svg">
<g clip-path="url(#clip0)">
<path d="M82.147 25.5762L31.0473 56.0015C30.0392 56.6017 29.7085 57.9056 30.3088 58.9137L51.382 94.3066C51.9823 95.3147 53.2861 95.6454 54.2943 95.0451L105.394 64.6199C106.402 64.0196 106.733 62.7158 106.132 61.7076L85.0593 26.3148C84.459 25.3066 83.1551 24.976 82.147 25.5762Z" fill="#2A84C6"/>
<path d="M82.147 25.5762L31.0473 56.0015C30.0392 56.6017 29.7085 57.9056 30.3088 58.9137L51.382 94.3066C51.9823 95.3147 53.2861 95.6454 54.2943 95.0451L105.394 64.6199C106.402 64.0196 106.733 62.7158 106.132 61.7076L85.0593 26.3148C84.459 25.3066 83.1551 24.976 82.147 25.5762Z" fill="white" fill-opacity="0.85"/>
<path d="M91.0567 36.4448L36.3582 69.0128L39.7294 74.6748L94.4279 42.1068L91.0567 36.4448Z" fill="#4316A3"/>
<path d="M91.0567 36.4448L36.3582 69.0128L39.7294 74.6748L94.4279 42.1068L91.0567 36.4448Z" fill="white" fill-opacity="0.2"/>
<path d="M40.7597 55.5479L36.0787 58.335C35.7426 58.5351 35.6324 58.9697 35.8325 59.3058L37.4231 61.9772C37.6232 62.3133 38.0578 62.4235 38.3938 62.2234L43.0748 59.4363C43.4109 59.2362 43.5211 58.8016 43.321 58.4655L41.7304 55.7941C41.5303 55.4581 41.0957 55.3478 40.7597 55.5479Z" fill="#2A84C6"/>
<path d="M40.7597 55.5479L36.0787 58.335C35.7426 58.5351 35.6324 58.9697 35.8325 59.3058L37.4231 61.9772C37.6232 62.3133 38.0578 62.4235 38.3938 62.2234L43.0748 59.4363C43.4109 59.2362 43.5211 58.8016 43.321 58.4655L41.7304 55.7941C41.5303 55.4581 41.0957 55.3478 40.7597 55.5479Z" fill="white" fill-opacity="0.85"/>
</g>
<g clip-path="url(#clip1)">
<path d="M43.0863 13.8175L17.0431 67.2836C16.5293 68.3384 16.9679 69.61 18.0227 70.1238L55.0546 88.162C56.1094 88.6758 57.3811 88.2372 57.8949 87.1823L83.938 33.7162C84.4518 32.6614 84.0133 31.3898 82.9584 30.876L45.9265 12.8379C44.8717 12.3241 43.6001 12.7626 43.0863 13.8175Z" fill="#1443BD"/>
<path d="M43.0863 13.8175L17.0431 67.2836C16.5293 68.3384 16.9679 69.61 18.0227 70.1238L55.0546 88.162C56.1094 88.6758 57.3811 88.2372 57.8949 87.1823L83.938 33.7162C84.4518 32.6614 84.0133 31.3898 82.9584 30.876L45.9265 12.8379C44.8717 12.3241 43.6001 12.7626 43.0863 13.8175Z" fill="white" fill-opacity="0.5"/>
<path d="M74.6919 40.1415C75.0955 39.313 74.0049 37.9507 72.256 37.0988C70.507 36.2469 68.762 36.2279 68.3584 37.0565C67.9549 37.8851 69.0455 39.2473 70.7944 40.0992C72.5434 40.9512 74.2883 40.9701 74.6919 40.1415Z" fill="#4316A3"/>
<path d="M74.6919 40.1415C75.0955 39.313 74.0049 37.9507 72.256 37.0988C70.507 36.2469 68.762 36.2279 68.3584 37.0565C67.9549 37.8851 69.0455 39.2473 70.7944 40.0992C72.5434 40.9512 74.2883 40.9701 74.6919 40.1415Z" fill="white" fill-opacity="0.2"/>
<path d="M56.4967 18.0196L28.6194 75.2512L34.5436 78.1369L62.4209 20.9053L56.4967 18.0196Z" fill="#4316A3"/>
<path d="M56.4967 18.0196L28.6194 75.2512L34.5436 78.1369L62.4209 20.9053L56.4967 18.0196Z" fill="white" fill-opacity="0.2"/>
<path d="M52.3176 57.2413L42.97 76.4316C42.7988 76.7832 42.945 77.2071 43.2966 77.3783L44.0696 77.7549C44.4213 77.9262 44.8451 77.78 45.0164 77.4284L54.364 58.2381C54.5352 57.8864 54.389 57.4626 54.0374 57.2913L53.2643 56.9147C52.9127 56.7435 52.4888 56.8897 52.3176 57.2413Z" fill="#4316A3"/>
<path d="M52.3176 57.2413L42.97 76.4316C42.7988 76.7832 42.945 77.2071 43.2966 77.3783L44.0696 77.7549C44.4213 77.9262 44.8451 77.78 45.0164 77.4284L54.364 58.2381C54.5352 57.8864 54.389 57.4626 54.0374 57.2913L53.2643 56.9147C52.9127 56.7435 52.4888 56.8897 52.3176 57.2413Z" fill="white" fill-opacity="0.2"/>
<path d="M54.5008 68.3526L49.1092 79.4215C48.9379 79.7731 49.0841 80.1969 49.4357 80.3682L50.2088 80.7448C50.5604 80.916 50.9843 80.7698 51.1555 80.4182L56.5471 69.3494C56.7184 68.9978 56.5722 68.5739 56.2206 68.4027L55.4475 68.0261C55.0959 67.8548 54.672 68.001 54.5008 68.3526Z" fill="#4316A3"/>
<path d="M54.5008 68.3526L49.1092 79.4215C48.9379 79.7731 49.0841 80.1969 49.4357 80.3682L50.2088 80.7448C50.5604 80.916 50.9843 80.7698 51.1555 80.4182L56.5471 69.3494C56.7184 68.9978 56.5722 68.5739 56.2206 68.4027L55.4475 68.0261C55.0959 67.8548 54.672 68.001 54.5008 68.3526Z" fill="white" fill-opacity="0.2"/>
<path d="M24.9165 61.5779L22.5308 66.4757C22.3595 66.8273 22.5057 67.2511 22.8573 67.4224L25.6525 68.7839C26.0041 68.9552 26.428 68.809 26.5992 68.4574L28.9849 63.5596C29.1562 63.208 29.01 62.7841 28.6584 62.6129L25.8633 61.2514C25.5116 61.0801 25.0878 61.2263 24.9165 61.5779Z" fill="#1443BD"/>
<path d="M24.9165 61.5779L22.5308 66.4757C22.3595 66.8273 22.5057 67.2511 22.8573 67.4224L25.6525 68.7839C26.0041 68.9552 26.428 68.809 26.5992 68.4574L28.9849 63.5596C29.1562 63.208 29.01 62.7841 28.6584 62.6129L25.8633 61.2514C25.5116 61.0801 25.0878 61.2263 24.9165 61.5779Z" fill="white" fill-opacity="0.5"/>
<path d="M70.7945 40.1003C69.5663 39.5036 68.6719 38.386 68.3588 37.0569C66.1802 38.0586 65.1521 40.5785 66.0082 42.8184C66.8643 45.0582 69.3111 46.25 71.6024 45.5433C73.8938 44.8366 75.2441 42.4736 74.6898 40.1407C73.4512 40.7131 72.0209 40.6983 70.7945 40.1003Z" fill="#2A84C6"/>
<path d="M70.7945 40.1003C69.5663 39.5036 68.6719 38.386 68.3588 37.0569C66.1802 38.0586 65.1521 40.5785 66.0082 42.8184C66.8643 45.0582 69.3111 46.25 71.6024 45.5433C73.8938 44.8366 75.2441 42.4736 74.6898 40.1407C73.4512 40.7131 72.0209 40.6983 70.7945 40.1003Z" fill="white" fill-opacity="0.5"/>
<path d="M68.6956 34.0136C68.2338 34.9582 68.1149 36.0339 68.3591 37.0565C69.5985 36.4866 71.0281 36.5026 72.2544 37.0999C73.4808 37.6973 74.3747 38.8131 74.69 40.1403C76.5127 39.3033 77.5729 37.3721 77.3005 35.385C77.0281 33.3979 75.4874 31.8232 73.5067 31.5075C71.526 31.1919 69.5721 32.2096 68.6956 34.0136Z" fill="#B7EE81"/>
<path d="M68.6956 34.0136C68.2338 34.9582 68.1149 36.0339 68.3591 37.0565C69.5985 36.4866 71.0281 36.5026 72.2544 37.0999C73.4808 37.6973 74.3747 38.8131 74.69 40.1403C76.5127 39.3033 77.5729 37.3721 77.3005 35.385C77.0281 33.3979 75.4874 31.8232 73.5067 31.5075C71.526 31.1919 69.5721 32.2096 68.6956 34.0136Z" fill="white" fill-opacity="0.2"/>
</g>
<path fill-rule="evenodd" clip-rule="evenodd" d="M37.0342 46.5687C37.0342 46.5687 34.2622 50.8487 29.8758 53.1451C25.4895 55.4417 20.0857 54.7807 16.5416 52.5537C12.9974 50.3266 11.8044 48.4477 11.8044 48.4477L8.75151 50.1874C8.75151 50.1874 8.11987 50.5007 8.11987 49.7699V38.8438C8.11987 38.8438 8.11987 37.8696 8.85669 38.2175C9.47668 38.5102 16.1812 42.3247 18.2939 43.5281C19.4541 44.0459 18.4348 44.4664 18.4348 44.4664L15.4889 46.1511C15.4889 46.1511 17.1693 48.2567 19.6287 49.3719C22.2612 50.7441 24.7257 50.907 27.7448 49.7665C29.6556 49.0449 31.8952 47.2303 33.5516 44.5526C33.6341 44.4192 33.812 44.3826 33.9418 44.4707L37.0342 46.5687ZM9.66396 32.1286C9.66396 32.1286 12.436 27.8486 16.8222 25.552C21.2085 23.2556 26.6124 23.9167 30.1564 26.1436C33.7005 28.3706 34.8937 30.2496 34.8937 30.2496L37.9464 28.5098C37.9464 28.5098 38.5782 28.1967 38.5782 28.9274V39.8534C38.5782 39.8534 38.5782 40.8278 37.8412 40.4797C37.2212 40.1871 30.5168 36.3726 28.4042 35.1692C27.244 34.6514 28.2633 34.2308 28.2633 34.2308L31.2092 32.5461C31.2092 32.5461 29.5288 30.4406 27.0694 29.3254C24.4368 27.953 21.9722 27.7903 18.9531 28.9307C16.9845 29.6742 14.6667 31.5781 12.9973 34.3903L9.66396 32.1286Z" fill="#AC26DB"/>
<defs>
<clipPath id="clip0">
<rect width="75.5366" height="75.5366" fill="white" transform="translate(16.4529 47.1775) rotate(-30.77)"/>
</clipPath>
<clipPath id="clip1">
<rect width="75.5366" height="75.5366" fill="white" transform="translate(0 67.9089) rotate(-64.0294)"/>
</clipPath>
</defs>
</svg>
