<svg width="585" height="200" viewBox="0 0 549 276" fill="none" xmlns="http://www.w3.org/2000/svg">
<g clip-path="url(#clip0)">
<rect width="549" height="276" fill="white"/>
<path fill-rule="evenodd" clip-rule="evenodd" d="M220 118C220 92.211 239.881 71.3049 264.406 71.3049H289.237V72.1303C289.237 85.8442 278.12 96.9615 264.406 96.9615C253.356 96.9615 244.399 106.381 244.399 118H220Z" fill="#FFC300"/>
<path fill-rule="evenodd" clip-rule="evenodd" d="M220 114.223C220 81.6272 247.309 55.2034 280.997 55.2034L285.243 55.2034L280.997 72.6469H289.237L288.702 78.8111H280.997C260.785 78.8111 244.399 94.6654 244.399 114.223V118H220V114.223Z" fill="#FF9900"/>
<path fill-rule="evenodd" clip-rule="evenodd" d="M220 110.143C220 76.2437 247.811 48.7627 282.117 48.7627L297.288 48.7627V58.1441C297.288 66.5227 290.496 73.3149 282.117 73.3149C261.533 73.3149 244.847 89.8035 244.847 110.143V118H220V110.143Z" fill="#FF3E80"/>
<path fill-rule="evenodd" clip-rule="evenodd" d="M220 88.5705C220 54.1354 247.811 26.2202 282.117 26.2202H286.441L282.373 45.8105H297.288V51.1603H282.117C261.533 51.1603 244.847 67.9095 244.847 88.5705V118H220V88.5705Z" fill="#D62460"/>
<path fill-rule="evenodd" clip-rule="evenodd" d="M220 85.6971C220 51.0704 247.836 23 282.173 23H315C315 36.8506 303.772 48.0788 289.921 48.0788H282.173C261.571 48.0788 244.869 64.9211 244.869 85.6971V116.39C244.869 119.058 242.706 121.22 240.039 121.22H224.831C222.163 121.22 220 119.058 220 116.39L220 85.6971Z" fill="#8759F2"/>
<path d="M128.367 184.082H108.117V205H97.5703V153.812H130.898V162.355H108.117V175.574H128.367V184.082ZM147.07 205H136.875V166.961H147.07V205ZM136.277 157.117C136.277 155.594 136.781 154.34 137.789 153.355C138.82 152.371 140.215 151.879 141.973 151.879C143.707 151.879 145.09 152.371 146.121 153.355C147.152 154.34 147.668 155.594 147.668 157.117C147.668 158.664 147.141 159.93 146.086 160.914C145.055 161.898 143.684 162.391 141.973 162.391C140.262 162.391 138.879 161.898 137.824 160.914C136.793 159.93 136.277 158.664 136.277 157.117ZM164.824 166.961L165.141 171.355C167.859 167.957 171.504 166.258 176.074 166.258C180.105 166.258 183.105 167.441 185.074 169.809C187.043 172.176 188.051 175.715 188.098 180.426V205H177.938V180.672C177.938 178.516 177.469 176.957 176.531 175.996C175.594 175.012 174.035 174.52 171.855 174.52C168.996 174.52 166.852 175.738 165.422 178.176V205H155.262V166.961H164.824ZM217.875 205C217.406 204.086 217.066 202.949 216.855 201.59C214.395 204.332 211.195 205.703 207.258 205.703C203.531 205.703 200.438 204.625 197.977 202.469C195.539 200.312 194.32 197.594 194.32 194.312C194.32 190.281 195.809 187.188 198.785 185.031C201.785 182.875 206.109 181.785 211.758 181.762H216.434V179.582C216.434 177.824 215.977 176.418 215.062 175.363C214.172 174.309 212.754 173.781 210.809 173.781C209.098 173.781 207.75 174.191 206.766 175.012C205.805 175.832 205.324 176.957 205.324 178.387H195.164C195.164 176.184 195.844 174.145 197.203 172.27C198.562 170.395 200.484 168.93 202.969 167.875C205.453 166.797 208.242 166.258 211.336 166.258C216.023 166.258 219.738 167.441 222.48 169.809C225.246 172.152 226.629 175.457 226.629 179.723V196.211C226.652 199.82 227.156 202.551 228.141 204.402V205H217.875ZM209.473 197.934C210.973 197.934 212.355 197.605 213.621 196.949C214.887 196.27 215.824 195.367 216.434 194.242V187.703H212.637C207.551 187.703 204.844 189.461 204.516 192.977L204.48 193.574C204.48 194.84 204.926 195.883 205.816 196.703C206.707 197.523 207.926 197.934 209.473 197.934ZM243.785 166.961L244.102 171.355C246.82 167.957 250.465 166.258 255.035 166.258C259.066 166.258 262.066 167.441 264.035 169.809C266.004 172.176 267.012 175.715 267.059 180.426V205H256.898V180.672C256.898 178.516 256.43 176.957 255.492 175.996C254.555 175.012 252.996 174.52 250.816 174.52C247.957 174.52 245.812 175.738 244.383 178.176V205H234.223V166.961H243.785ZM290.613 197.512C292.488 197.512 294.012 196.996 295.184 195.965C296.355 194.934 296.965 193.562 297.012 191.852H306.539C306.516 194.43 305.812 196.797 304.43 198.953C303.047 201.086 301.148 202.75 298.734 203.945C296.344 205.117 293.695 205.703 290.789 205.703C285.352 205.703 281.062 203.98 277.922 200.535C274.781 197.066 273.211 192.285 273.211 186.191V185.523C273.211 179.664 274.77 174.988 277.887 171.496C281.004 168.004 285.281 166.258 290.719 166.258C295.477 166.258 299.285 167.617 302.145 170.336C305.027 173.031 306.492 176.629 306.539 181.129H297.012C296.965 179.16 296.355 177.566 295.184 176.348C294.012 175.105 292.465 174.484 290.543 174.484C288.176 174.484 286.383 175.352 285.164 177.086C283.969 178.797 283.371 181.586 283.371 185.453V186.508C283.371 190.422 283.969 193.234 285.164 194.945C286.359 196.656 288.176 197.512 290.613 197.512ZM329.848 205.703C324.27 205.703 319.723 203.992 316.207 200.57C312.715 197.148 310.969 192.59 310.969 186.895V185.91C310.969 182.09 311.707 178.68 313.184 175.68C314.66 172.656 316.746 170.336 319.441 168.719C322.16 167.078 325.254 166.258 328.723 166.258C333.926 166.258 338.016 167.898 340.992 171.18C343.992 174.461 345.492 179.113 345.492 185.137V189.285H321.27C321.598 191.77 322.582 193.762 324.223 195.262C325.887 196.762 327.984 197.512 330.516 197.512C334.43 197.512 337.488 196.094 339.691 193.258L344.684 198.848C343.16 201.004 341.098 202.691 338.496 203.91C335.895 205.105 333.012 205.703 329.848 205.703ZM328.688 174.484C326.672 174.484 325.031 175.164 323.766 176.523C322.523 177.883 321.727 179.828 321.375 182.359H335.508V181.551C335.461 179.301 334.852 177.566 333.68 176.348C332.508 175.105 330.844 174.484 328.688 174.484Z" fill="black"/>
<path d="M380.859 194.453H362.367L358.852 205H347.637L366.691 153.812H376.465L395.625 205H384.41L380.859 194.453ZM365.215 185.91H378.012L371.578 166.75L365.215 185.91ZM419.355 186.262H410.953V205H400.406V153.812H419.426C425.473 153.812 430.137 155.16 433.418 157.855C436.699 160.551 438.34 164.359 438.34 169.281C438.34 172.773 437.578 175.691 436.055 178.035C434.555 180.355 432.27 182.207 429.199 183.59L440.273 204.508V205H428.953L419.355 186.262ZM410.953 177.719H419.461C422.109 177.719 424.16 177.051 425.613 175.715C427.066 174.355 427.793 172.492 427.793 170.125C427.793 167.711 427.102 165.812 425.719 164.43C424.359 163.047 422.262 162.355 419.426 162.355H410.953V177.719Z" fill="url(#paint0_linear)" style="mix-blend-mode:darken"/>
</g>
<defs>
<linearGradient id="paint0_linear" x1="267.5" y1="138" x2="267.5" y2="222" gradientUnits="userSpaceOnUse">
<stop offset="0.03125" stop-color="#3600CE" stop-opacity="0.87"/>
<stop offset="0.223958" stop-color="#836CC5" stop-opacity="0.89"/>
<stop offset="0.630208" stop-color="#6136DE" stop-opacity="0.89"/>
<stop offset="0.9997" stop-color="#5928E5" stop-opacity="0.180602"/>
<stop offset="0.9998" stop-color="#5725E8" stop-opacity="0"/>
<stop offset="0.9999" stop-color="#5826E6"/>
</linearGradient>
<clipPath id="clip0">
<rect width="549" height="276" fill="white"/>
</clipPath>
</defs>
</svg>


