<svg xmlns="http://www.w3.org/2000/svg" x="0px" y="0px"
width="50" height="50"
viewBox="0 0 172 172"
style=" fill:#000000;"><g fill="none" fill-rule="nonzero" stroke="none" stroke-width="1" stroke-linecap="butt" stroke-linejoin="miter" stroke-miterlimit="10" stroke-dasharray="" stroke-dashoffset="0" font-family="none" font-weight="none" font-size="none" text-anchor="none" style="mix-blend-mode: normal"><path d="M0,172v-172h172v172z" fill="none"></path><g fill="#cccccc"><path d="M34.4,30.96c-13.30312,0 -24.08,10.77688 -24.08,24.08v61.92c0,13.30313 10.77688,24.08 24.08,24.08h103.2c13.30313,0 24.08,-10.77687 24.08,-24.08v-61.92c0,-13.30312 -10.77687,-24.08 -24.08,-24.08zM34.4,37.84h103.2c9.48688,0 17.2,7.71313 17.2,17.2v61.92c0,9.48688 -7.71312,17.2 -17.2,17.2h-103.2c-9.48687,0 -17.2,-7.71312 -17.2,-17.2v-61.92c0,-9.48687 7.71313,-17.2 17.2,-17.2zM90.515,58.48l-25.155,35.045v6.235h24.1875v13.76h6.3425v-13.76h7.31v-5.6975h-7.31v-35.5825zM89.87,68.8v24.94h-17.63z"></path></g></g></svg>