<svg xmlns="http://www.w3.org/2000/svg" x="0px" y="0px"
width="50" height="50"
viewBox="0 0 226 226"
style=" fill:#000000;"><g fill="none" fill-rule="nonzero" stroke="none" stroke-width="1" stroke-linecap="butt" stroke-linejoin="miter" stroke-miterlimit="10" stroke-dasharray="" stroke-dashoffset="0" font-family="none" font-weight="none" font-size="none" text-anchor="none" style="mix-blend-mode: normal"><path d="M0,226v-226h226v226z" fill="none"></path><g fill="#cccccc"><path d="M45.2,40.68c-17.47969,0 -31.64,14.16031 -31.64,31.64v81.36c0,17.47969 14.16031,31.64 31.64,31.64h135.6c17.47969,0 31.64,-14.16031 31.64,-31.64v-81.36c0,-17.47969 -14.16031,-31.64 -31.64,-31.64zM45.2,49.72h135.6c12.46531,0 22.6,10.13469 22.6,22.6v81.36c0,12.46531 -10.13469,22.6 -22.6,22.6h-135.6c-12.46531,0 -22.6,-10.13469 -22.6,-22.6v-81.36c0,-12.46531 10.13469,-22.6 22.6,-22.6zM110.88125,77.54625c-1.94219,10.84094 -9.64031,13.17156 -20.48125,13.56v6.92125h18.645v50.70875h8.475v-71.19z"></path></g></g></svg>