<svg width="106" height="105" viewBox="0 0 106 105" fill="none" xmlns="http://www.w3.org/2000/svg">
<g clip-path="url(#clip0)">
<g clip-path="url(#clip1)" filter="url(#filter0_ddddd)">
<path d="M14.3649 40.0994C13.8141 40.3275 13.5539 40.9548 13.7844 41.5008C15.0873 44.4562 15.912 47.4839 16.3093 50.6886C16.3647 51.1358 16.9285 51.9071 17.8002 51.5461C18.2359 51.3657 18.5159 50.9149 18.4556 50.4272C18.1854 48.2215 17.5665 44.7289 15.7792 40.6747C15.5494 40.1289 14.9161 39.8712 14.3649 40.0994V40.0994ZM12.9089 36.7489C10.3611 37.8005 9.40328 40.4775 10.3774 42.6873C11.2417 44.6484 11.8883 46.7011 12.2989 48.7872C12.4126 49.3679 12.981 49.7474 13.5666 49.634C14.1555 49.5193 14.5353 48.9591 14.4215 48.3783C13.9809 46.1378 13.2869 43.9344 12.3597 41.8301C11.8916 40.7686 12.2755 39.3258 13.7135 38.7376C15.0232 38.2179 16.5295 38.7972 17.0727 40.0298C17.9397 41.995 18.6299 44.0447 19.1263 46.1233C19.263 46.6984 19.8461 47.0549 20.427 46.9188C21.315 46.7121 21.279 45.8355 21.2299 45.63C20.7046 43.4274 19.9723 41.2549 19.0549 39.1726C18.0487 36.8901 15.2916 35.8028 12.9089 36.7489V36.7489ZM7.96385 37.8399C7.39076 37.6738 6.79108 37.9966 6.62097 38.5643C6.10339 40.3024 6.2223 42.1775 6.95655 43.8432C7.63415 45.3804 8.16194 46.985 8.5251 48.6138C8.65462 49.1915 9.23107 49.5564 9.81455 49.429C10.7113 49.2269 10.6824 48.3532 10.6375 48.1517C10.244 46.3874 9.6722 44.6496 8.93882 42.986C8.40002 41.7637 8.31539 40.4443 8.69562 39.1699C8.86407 38.6029 8.53664 38.0075 7.96385 37.8399ZM11.4312 33.3889C10.7835 33.6372 10.173 33.9796 9.61455 34.3816C9.13191 34.7295 9.02471 35.3988 9.37544 35.8781C9.72665 36.3562 10.4025 36.4604 10.8862 36.115C11.3002 35.8173 11.7548 35.5729 12.2354 35.3777C15.3906 34.1258 19.0295 35.5392 20.3473 38.5286C21.0301 40.0782 21.6167 41.6845 22.09 43.3035C22.2566 43.8716 22.8564 44.1994 23.4295 44.0346C24.1584 43.8271 24.2834 43.1063 24.1675 42.7078C23.6651 40.9915 23.0511 39.3092 22.3296 37.6714C20.5486 33.632 15.6595 31.7104 11.4312 33.3889V33.3889ZM24.0201 34.0505C23.6766 33.5678 23.0069 33.4446 22.5133 33.7907C22.0251 34.1313 21.9075 34.7991 22.2514 35.2831C22.8193 36.0836 23.1056 36.739 23.5173 37.7387C23.7433 38.287 24.3745 38.549 24.9272 38.3255L24.9355 38.322C25.483 38.0953 25.7442 37.4739 25.5196 36.9289C25.1416 36.0125 24.7696 35.1057 24.0201 34.0505ZM20.7758 31.0056C17.5455 28.9867 13.5 28.6221 9.95331 30.0294C7.03762 31.1962 4.8015 33.3669 3.64046 36.1711C2.51979 38.8811 2.55271 41.8507 3.73613 44.5344L4.10426 45.4205C4.31831 45.9728 4.94366 46.2489 5.50105 46.0364C5.51096 46.0333 5.52135 46.029 5.53133 46.0248C6.0684 45.8024 6.33294 45.1946 6.12282 44.6528L5.71865 43.6766C4.77178 41.5291 4.74495 39.1526 5.64255 36.9842C6.57948 34.7194 8.40248 32.9549 10.7585 32.0184C13.6634 30.8652 16.9771 31.1633 19.6229 32.8167C20.1279 33.1329 20.7944 32.9822 21.1139 32.4827C21.4321 31.9823 21.2809 31.3208 20.7758 31.0056V31.0056Z" fill="#4316A3"/>
<path d="M14.3649 40.0994C13.8141 40.3275 13.5539 40.9548 13.7844 41.5008C15.0873 44.4562 15.912 47.4839 16.3093 50.6886C16.3647 51.1358 16.9285 51.9071 17.8002 51.5461C18.2359 51.3657 18.5159 50.9149 18.4556 50.4272C18.1854 48.2215 17.5665 44.7289 15.7792 40.6747C15.5494 40.1289 14.9161 39.8712 14.3649 40.0994V40.0994ZM12.9089 36.7489C10.3611 37.8005 9.40328 40.4775 10.3774 42.6873C11.2417 44.6484 11.8883 46.7011 12.2989 48.7872C12.4126 49.3679 12.981 49.7474 13.5666 49.634C14.1555 49.5193 14.5353 48.9591 14.4215 48.3783C13.9809 46.1378 13.2869 43.9344 12.3597 41.8301C11.8916 40.7686 12.2755 39.3258 13.7135 38.7376C15.0232 38.2179 16.5295 38.7972 17.0727 40.0298C17.9397 41.995 18.6299 44.0447 19.1263 46.1233C19.263 46.6984 19.8461 47.0549 20.427 46.9188C21.315 46.7121 21.279 45.8355 21.2299 45.63C20.7046 43.4274 19.9723 41.2549 19.0549 39.1726C18.0487 36.8901 15.2916 35.8028 12.9089 36.7489V36.7489ZM7.96385 37.8399C7.39076 37.6738 6.79108 37.9966 6.62097 38.5643C6.10339 40.3024 6.2223 42.1775 6.95655 43.8432C7.63415 45.3804 8.16194 46.985 8.5251 48.6138C8.65462 49.1915 9.23107 49.5564 9.81455 49.429C10.7113 49.2269 10.6824 48.3532 10.6375 48.1517C10.244 46.3874 9.6722 44.6496 8.93882 42.986C8.40002 41.7637 8.31539 40.4443 8.69562 39.1699C8.86407 38.6029 8.53664 38.0075 7.96385 37.8399ZM11.4312 33.3889C10.7835 33.6372 10.173 33.9796 9.61455 34.3816C9.13191 34.7295 9.02471 35.3988 9.37544 35.8781C9.72665 36.3562 10.4025 36.4604 10.8862 36.115C11.3002 35.8173 11.7548 35.5729 12.2354 35.3777C15.3906 34.1258 19.0295 35.5392 20.3473 38.5286C21.0301 40.0782 21.6167 41.6845 22.09 43.3035C22.2566 43.8716 22.8564 44.1994 23.4295 44.0346C24.1584 43.8271 24.2834 43.1063 24.1675 42.7078C23.6651 40.9915 23.0511 39.3092 22.3296 37.6714C20.5486 33.632 15.6595 31.7104 11.4312 33.3889V33.3889ZM24.0201 34.0505C23.6766 33.5678 23.0069 33.4446 22.5133 33.7907C22.0251 34.1313 21.9075 34.7991 22.2514 35.2831C22.8193 36.0836 23.1056 36.739 23.5173 37.7387C23.7433 38.287 24.3745 38.549 24.9272 38.3255L24.9355 38.322C25.483 38.0953 25.7442 37.4739 25.5196 36.9289C25.1416 36.0125 24.7696 35.1057 24.0201 34.0505ZM20.7758 31.0056C17.5455 28.9867 13.5 28.6221 9.95331 30.0294C7.03762 31.1962 4.8015 33.3669 3.64046 36.1711C2.51979 38.8811 2.55271 41.8507 3.73613 44.5344L4.10426 45.4205C4.31831 45.9728 4.94366 46.2489 5.50105 46.0364C5.51096 46.0333 5.52135 46.029 5.53133 46.0248C6.0684 45.8024 6.33294 45.1946 6.12282 44.6528L5.71865 43.6766C4.77178 41.5291 4.74495 39.1526 5.64255 36.9842C6.57948 34.7194 8.40248 32.9549 10.7585 32.0184C13.6634 30.8652 16.9771 31.1633 19.6229 32.8167C20.1279 33.1329 20.7944 32.9822 21.1139 32.4827C21.4321 31.9823 21.2809 31.3208 20.7758 31.0056V31.0056Z" fill="white" fill-opacity="0.35"/>
</g>
<path d="M80.7528 51.8751L82.0349 53.6379L80.5351 54.5682L79.4707 52.5361L78.4063 54.5682L76.9065 53.6379L78.2128 51.8751L76.0115 52.022V50.2592L78.2128 50.4061L76.9065 48.6434L78.4063 47.713L79.4707 49.7451L80.5351 47.713L82.0349 48.6434L80.7528 50.4061L82.93 50.2592V52.022L80.7528 51.8751Z" fill="#4316A3"/>
<path d="M80.7528 51.8751L82.0349 53.6379L80.5351 54.5682L79.4707 52.5361L78.4063 54.5682L76.9065 53.6379L78.2128 51.8751L76.0115 52.022V50.2592L78.2128 50.4061L76.9065 48.6434L78.4063 47.713L79.4707 49.7451L80.5351 47.713L82.0349 48.6434L80.7528 50.4061L82.93 50.2592V52.022L80.7528 51.8751Z" fill="white" fill-opacity="0.35"/>
<path d="M89.9811 51.8751L91.2632 53.6379L89.7634 54.5682L88.699 52.5361L87.6347 54.5682L86.1348 53.6379L87.4411 51.8751L85.2398 52.022V50.2592L87.4411 50.4061L86.1348 48.6434L87.6347 47.713L88.699 49.7451L89.7634 47.713L91.2632 48.6434L89.9811 50.4061L92.1583 50.2592V52.022L89.9811 51.8751Z" fill="#4316A3"/>
<path d="M89.9811 51.8751L91.2632 53.6379L89.7634 54.5682L88.699 52.5361L87.6347 54.5682L86.1348 53.6379L87.4411 51.8751L85.2398 52.022V50.2592L87.4411 50.4061L86.1348 48.6434L87.6347 47.713L88.699 49.7451L89.7634 47.713L91.2632 48.6434L89.9811 50.4061L92.1583 50.2592V52.022L89.9811 51.8751Z" fill="white" fill-opacity="0.35"/>
<path d="M99.2095 51.8751L100.492 53.6379L98.9917 54.5682L97.9274 52.5361L96.863 54.5682L95.3632 53.6379L96.6694 51.8751L94.4681 52.022V50.2592L96.6694 50.4061L95.3632 48.6434L96.863 47.713L97.9274 49.7451L98.9917 47.713L100.492 48.6434L99.2095 50.4061L101.387 50.2592V52.022L99.2095 51.8751Z" fill="#4316A3"/>
<path d="M99.2095 51.8751L100.492 53.6379L98.9917 54.5682L97.9274 52.5361L96.863 54.5682L95.3632 53.6379L96.6694 51.8751L94.4681 52.022V50.2592L96.6694 50.4061L95.3632 48.6434L96.863 47.713L97.9274 49.7451L98.9917 47.713L100.492 48.6434L99.2095 50.4061L101.387 50.2592V52.022L99.2095 51.8751Z" fill="white" fill-opacity="0.35"/>
<path d="M59.6149 70.4653V59.3372H40.8602V70.4653C21.0485 77.5405 18.8296 82.5856 18.8296 82.5856H81.6496C81.6496 82.5856 79.4307 77.5405 59.6149 70.4653Z" fill="#2A84C6"/>
<path d="M59.6149 70.4653V59.3372H40.8602V70.4653C21.0485 77.5405 18.8296 82.5856 18.8296 82.5856H81.6496C81.6496 82.5856 79.4307 77.5405 59.6149 70.4653Z" fill="white" fill-opacity="0.2"/>
<path d="M71.3844 44.356C71.3844 41.7693 70.0366 39.5449 68.1033 38.5559C68.1968 35.2884 68.1239 32.9989 68.1239 32.9989C68.1239 26.9301 64.6661 21.6235 59.5072 18.7336V14.3357C44.9202 14.3357 40.2297 19.5579 40.2297 19.5579C35.8186 22.5709 32.9505 27.4674 32.9505 32.9959C32.9505 32.9959 32.8827 35.1755 32.9659 38.3167C30.7491 39.1481 29.1497 41.5373 29.1497 44.356C29.1497 47.6407 31.3223 50.3434 34.1093 50.6761C34.7338 54.0748 35.681 57.158 37.1109 59.0385C41.3853 64.6605 46.5689 67.0274 50.5372 67.0274C54.5055 67.0274 59.6901 64.6605 63.9635 59.0385C65.4119 57.1387 66.358 54.0137 66.9826 50.5743C69.4963 49.974 71.3844 47.4199 71.3844 44.356Z" fill="#5C2AC6"/>
<path d="M71.3844 44.356C71.3844 41.7693 70.0366 39.5449 68.1033 38.5559C68.1968 35.2884 68.1239 32.9989 68.1239 32.9989C68.1239 26.9301 64.6661 21.6235 59.5072 18.7336V14.3357C44.9202 14.3357 40.2297 19.5579 40.2297 19.5579C35.8186 22.5709 32.9505 27.4674 32.9505 32.9959C32.9505 32.9959 32.8827 35.1755 32.9659 38.3167C30.7491 39.1481 29.1497 41.5373 29.1497 44.356C29.1497 47.6407 31.3223 50.3434 34.1093 50.6761C34.7338 54.0748 35.681 57.158 37.1109 59.0385C41.3853 64.6605 46.5689 67.0274 50.5372 67.0274C54.5055 67.0274 59.6901 64.6605 63.9635 59.0385C65.4119 57.1387 66.358 54.0137 66.9826 50.5743C69.4963 49.974 71.3844 47.4199 71.3844 44.356Z" fill="white" fill-opacity="0.65"/>
<path d="M32.54 32.4174H41.3056" stroke="white" stroke-linecap="round" stroke-linejoin="round"/>
<path d="M43.3569 34.578C44.4898 34.578 45.4083 33.6682 45.4083 32.5459C45.4083 31.4236 44.4898 30.5138 43.3569 30.5138C42.2239 30.5138 41.3054 31.4236 41.3054 32.5459C41.3054 33.6682 42.2239 34.578 43.3569 34.578Z" stroke="white" stroke-linecap="round" stroke-linejoin="round"/>
<path d="M66.4068 53.8475H57.6401" stroke="white" stroke-linecap="round" stroke-linejoin="round"/>
<path d="M55.5898 55.7497C56.7228 55.7497 57.6412 54.8399 57.6412 53.7177C57.6412 52.5954 56.7228 51.6856 55.5898 51.6856C54.4568 51.6856 53.5383 52.5954 53.5383 53.7177C53.5383 54.8399 54.4568 55.7497 55.5898 55.7497Z" stroke="white" stroke-linecap="round" stroke-linejoin="round"/>
<path d="M14.4601 10.9913H11.1729V24.0161H14.4601V10.9913Z" fill="#4316A3"/>
<path d="M14.4601 10.9913H11.1729V24.0161H14.4601V10.9913Z" fill="white" fill-opacity="0.35"/>
<path d="M24.2185 14.2475V10.9913H11.1723V14.2475H24.2185Z" fill="#4316A3"/>
<path d="M24.2185 14.2475V10.9913H11.1723V14.2475H24.2185Z" fill="white" fill-opacity="0.35"/>
<path d="M86.7794 24.0166H90.0667V10.9917H86.7794V24.0166Z" fill="#4316A3"/>
<path d="M86.7794 24.0166H90.0667V10.9917H86.7794V24.0166Z" fill="white" fill-opacity="0.35"/>
<path d="M90.0667 14.2475V10.9913H77.0205V14.2475H90.0667Z" fill="#4316A3"/>
<path d="M90.0667 14.2475V10.9913H77.0205V14.2475H90.0667Z" fill="white" fill-opacity="0.35"/>
<path d="M14.4601 76.0585H11.1729V89.0834H14.4601V76.0585Z" fill="#4316A3"/>
<path d="M14.4601 76.0585H11.1729V89.0834H14.4601V76.0585Z" fill="white" fill-opacity="0.35"/>
<path d="M11.1729 85.8277V89.0838H24.219V85.8277H11.1729Z" fill="#4316A3"/>
<path d="M11.1729 85.8277V89.0838H24.219V85.8277H11.1729Z" fill="white" fill-opacity="0.35"/>
<path d="M86.7794 89.0838H90.0667V76.059H86.7794V89.0838Z" fill="#4316A3"/>
<path d="M86.7794 89.0838H90.0667V76.059H86.7794V89.0838Z" fill="white" fill-opacity="0.35"/>
<path d="M77.0198 85.8276V89.0838H90.066V85.8276H77.0198Z" fill="#4316A3"/>
<path d="M77.0198 85.8276V89.0838H90.066V85.8276H77.0198Z" fill="white" fill-opacity="0.35"/>
<path d="M94.2881 102.139C94.5873 102.139 94.8724 102.012 95.072 101.792C95.2716 101.571 95.3668 101.276 95.3337 100.982C94.7534 95.772 90.2941 91.7189 84.8793 91.7189C79.4645 91.7189 75.0056 95.772 74.4249 100.982C74.3919 101.277 74.4872 101.572 74.6868 101.793C74.8865 102.013 75.1716 102.139 75.4709 102.139L94.2881 102.139Z" fill="#2A84C6"/>
<path d="M94.2881 102.139C94.5873 102.139 94.8724 102.012 95.072 101.792C95.2716 101.571 95.3668 101.276 95.3337 100.982C94.7534 95.772 90.2941 91.7189 84.8793 91.7189C79.4645 91.7189 75.0056 95.772 74.4249 100.982C74.3919 101.277 74.4872 101.572 74.6868 101.793C74.8865 102.013 75.1716 102.139 75.4709 102.139L94.2881 102.139Z" fill="white" fill-opacity="0.85"/>
<path d="M84.8675 91.7203C81.479 91.7179 78.2974 93.3348 76.323 96.0626C81.5131 99.3753 88.1761 99.3877 93.3789 96.0946L93.4172 96.0696C91.4432 93.3376 88.2591 91.7178 84.8675 91.7203Z" fill="#2A84C6"/>
<path d="M84.8675 91.7203C81.479 91.7179 78.2974 93.3348 76.323 96.0626C81.5131 99.3753 88.1761 99.3877 93.3789 96.0946L93.4172 96.0696C91.4432 93.3376 88.2591 91.7178 84.8675 91.7203Z" fill="white" fill-opacity="0.5"/>
<path d="M84.887 97.3223C93.6007 97.3223 100.665 90.3251 100.665 81.6935C100.665 73.062 93.6007 66.0648 84.887 66.0648C76.1733 66.0648 69.1094 73.062 69.1094 81.6935C69.1094 90.3251 76.1733 97.3223 84.887 97.3223Z" fill="#2A84C6"/>
<path d="M84.887 97.3223C93.6007 97.3223 100.665 90.3251 100.665 81.6935C100.665 73.062 93.6007 66.0648 84.887 66.0648C76.1733 66.0648 69.1094 73.062 69.1094 81.6935C69.1094 90.3251 76.1733 97.3223 84.887 97.3223Z" fill="white" fill-opacity="0.85"/>
<path d="M84.8871 91.1982C89.5343 91.1982 93.3017 87.4664 93.3017 82.863C93.3017 78.2596 89.5343 74.5277 84.8871 74.5277C80.2398 74.5277 76.4724 78.2596 76.4724 82.863C76.4724 87.4664 80.2398 91.1982 84.8871 91.1982Z" fill="#4316A3"/>
<path d="M84.8871 91.1982C89.5343 91.1982 93.3017 87.4664 93.3017 82.863C93.3017 78.2596 89.5343 74.5277 84.8871 74.5277C80.2398 74.5277 76.4724 78.2596 76.4724 82.863C76.4724 87.4664 80.2398 91.1982 84.8871 91.1982Z" fill="white" fill-opacity="0.35"/>
<path d="M84.8868 87.0311C87.2105 87.0311 89.0943 85.1651 89.0943 82.8632C89.0943 80.5614 87.2105 78.6954 84.8868 78.6954C82.563 78.6954 80.6792 80.5614 80.6792 82.8632C80.6792 85.1651 82.563 87.0311 84.8868 87.0311Z" fill="#2A84C6"/>
<path d="M84.8868 87.0311C87.2105 87.0311 89.0943 85.1651 89.0943 82.8632C89.0943 80.5614 87.2105 78.6954 84.8868 78.6954C82.563 78.6954 80.6792 80.5614 80.6792 82.8632C80.6792 85.1651 82.563 87.0311 84.8868 87.0311Z" fill="white" fill-opacity="0.85"/>
<path d="M84.8865 84.4264C85.7579 84.4264 86.4643 83.7267 86.4643 82.8635C86.4643 82.0004 85.7579 81.3007 84.8865 81.3007C84.0152 81.3007 83.3088 82.0004 83.3088 82.8635C83.3088 83.7267 84.0152 84.4264 84.8865 84.4264Z" fill="#4316A3"/>
<path d="M84.8865 84.4264C85.7579 84.4264 86.4643 83.7267 86.4643 82.8635C86.4643 82.0004 85.7579 81.3007 84.8865 81.3007C84.0152 81.3007 83.3088 82.0004 83.3088 82.8635C83.3088 83.7267 84.0152 84.4264 84.8865 84.4264Z" fill="white" fill-opacity="0.35"/>
<path d="M69.0562 81.6931H71.7654L72.7133 83.2892H76.3603" stroke="#4316A3" stroke-linecap="round" stroke-linejoin="round"/>
<path d="M69.0562 81.6931H71.7654L72.7133 83.2892H76.3603" stroke="white" stroke-opacity="0.35" stroke-linecap="round" stroke-linejoin="round"/>
<path d="M100.697 81.6931H97.9876L97.0401 83.2892H93.2881" stroke="#4316A3" stroke-linecap="round" stroke-linejoin="round"/>
<path d="M100.697 81.6931H97.9876L97.0401 83.2892H93.2881" stroke="white" stroke-opacity="0.35" stroke-linecap="round" stroke-linejoin="round"/>
</g>
<defs>
<filter id="filter0_ddddd" x="-73.574" y="-7.42293" width="176.217" height="175.875" filterUnits="userSpaceOnUse" color-interpolation-filters="sRGB">
<feFlood flood-opacity="0" result="BackgroundImageFix"/>
<feColorMatrix in="SourceAlpha" type="matrix" values="0 0 0 0 0 0 0 0 0 0 0 0 0 0 0 0 0 0 127 0" result="hardAlpha"/>
<feOffset dy="6"/>
<feGaussianBlur stdDeviation="4"/>
<feColorMatrix type="matrix" values="0 0 0 0 0.705882 0 0 0 0 0.831373 0 0 0 0 0.921569 0 0 0 0.12 0"/>
<feBlend mode="normal" in2="BackgroundImageFix" result="effect1_dropShadow"/>
<feColorMatrix in="SourceAlpha" type="matrix" values="0 0 0 0 0 0 0 0 0 0 0 0 0 0 0 0 0 0 127 0" result="hardAlpha"/>
<feOffset dy="8"/>
<feGaussianBlur stdDeviation="12"/>
<feColorMatrix type="matrix" values="0 0 0 0 0.705882 0 0 0 0 0.831373 0 0 0 0 0.921569 0 0 0 0.08 0"/>
<feBlend mode="normal" in2="effect1_dropShadow" result="effect2_dropShadow"/>
<feColorMatrix in="SourceAlpha" type="matrix" values="0 0 0 0 0 0 0 0 0 0 0 0 0 0 0 0 0 0 127 0" result="hardAlpha"/>
<feOffset dy="16"/>
<feGaussianBlur stdDeviation="18"/>
<feColorMatrix type="matrix" values="0 0 0 0 0.705882 0 0 0 0 0.831373 0 0 0 0 0.921569 0 0 0 0.04 0"/>
<feBlend mode="normal" in2="effect2_dropShadow" result="effect3_dropShadow"/>
<feColorMatrix in="SourceAlpha" type="matrix" values="0 0 0 0 0 0 0 0 0 0 0 0 0 0 0 0 0 0 127 0" result="hardAlpha"/>
<feOffset dy="40"/>
<feGaussianBlur stdDeviation="35"/>
<feColorMatrix type="matrix" values="0 0 0 0 0.705882 0 0 0 0 0.831373 0 0 0 0 0.921569 0 0 0 0.04 0"/>
<feBlend mode="normal" in2="effect3_dropShadow" result="effect4_dropShadow"/>
<feColorMatrix in="SourceAlpha" type="matrix" values="0 0 0 0 0 0 0 0 0 0 0 0 0 0 0 0 0 0 127 0" result="hardAlpha"/>
<feOffset dy="2"/>
<feGaussianBlur stdDeviation="2"/>
<feColorMatrix type="matrix" values="0 0 0 0 0.87451 0 0 0 0 0.929412 0 0 0 0 0.964706 0 0 0 0.4 0"/>
<feBlend mode="normal" in2="effect4_dropShadow" result="effect5_dropShadow"/>
<feBlend mode="normal" in="SourceGraphic" in2="effect5_dropShadow" result="shape"/>
</filter>
<clipPath id="clip0">
<rect width="106" height="105" fill="white"/>
</clipPath>
<clipPath id="clip1">
<rect width="27.6432" height="27.4598" fill="white" transform="matrix(0.923911 -0.382608 0.388832 0.921309 -3.57397 33.1536)"/>
</clipPath>
</defs>
</svg>
