<svg xmlns="http://www.w3.org/2000/svg" x="0px" y="0px"
width="50" height="50"
viewBox="0 0 226 226"
style=" fill:#000000;"><g fill="none" fill-rule="nonzero" stroke="none" stroke-width="1" stroke-linecap="butt" stroke-linejoin="miter" stroke-miterlimit="10" stroke-dasharray="" stroke-dashoffset="0" font-family="none" font-weight="none" font-size="none" text-anchor="none" style="mix-blend-mode: normal"><path d="M0,226v-226h226v226z" fill="none"></path><g fill="#cccccc"><path d="M45.2,40.68c-17.47969,0 -31.64,14.16031 -31.64,31.64v81.36c0,17.47969 14.16031,31.64 31.64,31.64h135.6c17.47969,0 31.64,-14.16031 31.64,-31.64v-81.36c0,-17.47969 -14.16031,-31.64 -31.64,-31.64zM45.2,49.72h135.6c12.46531,0 22.6,10.13469 22.6,22.6v81.36c0,12.46531 -10.13469,22.6 -22.6,22.6h-135.6c-12.46531,0 -22.6,-10.13469 -22.6,-22.6v-81.36c0,-12.46531 10.13469,-22.6 22.6,-22.6zM113.98875,76.84c-20.02219,0 -21.78781,18.18594 -21.89375,22.6h8.475c0.12359,-3.05453 1.50078,-14.9725 13.41875,-14.9725c11.15875,0 12.7125,7.73344 12.7125,11.5825c0,1.92453 -1.11234,11.5825 -13.41875,11.5825h-3.53125v7.345c1.53609,-0.38844 3.16047,-0.42375 5.085,-0.42375c1.92453,0 14.9725,0.33547 14.9725,13.41875c0,12.69484 -13.47172,13.8425 -15.39625,13.8425c-6.81531,0 -14.72531,-4.09625 -14.9725,-15.255h-8.475c0.07063,5.54406 1.74797,22.6 23.4475,22.6c4.2375,0 24.295,-1.21828 24.295,-21.61125c0,-12.69484 -8.475,-16.45562 -12.7125,-17.2325v-0.42375c2.70141,-1.53609 9.605,-6.19734 9.605,-14.26625c0,-3.07219 -0.82984,-18.78625 -21.61125,-18.78625z"></path></g></g></svg>