<svg xmlns="http://www.w3.org/2000/svg" x="0px" y="0px"
width="50" height="50"
viewBox="0 0 226 226"
style=" fill:#000000;"><g fill="none" fill-rule="nonzero" stroke="none" stroke-width="1" stroke-linecap="butt" stroke-linejoin="miter" stroke-miterlimit="10" stroke-dasharray="" stroke-dashoffset="0" font-family="none" font-weight="none" font-size="none" text-anchor="none" style="mix-blend-mode: normal"><path d="M0,226v-226h226v226z" fill="none"></path><g fill="#cccccc"><path d="M45.2,40.68c-17.47969,0 -31.64,14.16031 -31.64,31.64v81.36c0,17.47969 14.16031,31.64 31.64,31.64h135.6c17.47969,0 31.64,-14.16031 31.64,-31.64v-81.36c0,-17.47969 -14.16031,-31.64 -31.64,-31.64zM45.2,49.72h135.6c12.46531,0 22.6,10.13469 22.6,22.6v81.36c0,12.46531 -10.13469,22.6 -22.6,22.6h-135.6c-12.46531,0 -22.6,-10.13469 -22.6,-22.6v-81.36c0,-12.46531 10.13469,-22.6 22.6,-22.6zM113.14125,76.84c-20.88734,0 -22.84719,17.63859 -22.45875,25.84875h8.61625c0,-2.34828 0.68859,-18.08 13.8425,-18.08c12.37703,0 13.98375,11.03516 13.98375,12.995c0,21.89375 -38.27875,21.06391 -38.27875,51.55625h46.33v-7.76875h-36.725c1.94219,-16.03187 37.14875,-19.15703 37.14875,-43.7875c0,-3.51359 -1.57141,-20.76375 -22.45875,-20.76375z"></path></g></g></svg>